<svg xmlns="http://www.w3.org/2000/svg" width="28.073" height="30.533" viewBox="0 0 28.073 30.533"><defs><style>.a{fill:#b620e0;}</style></defs><path class="a" d="M0,27.67a2.939,2.939,0,0,0,3.008,2.862H25.065a2.939,2.939,0,0,0,3.008-2.862V11.45H0ZM20.052,15.982a.737.737,0,0,1,.752-.716H23.31a.737.737,0,0,1,.752.716v2.385a.737.737,0,0,1-.752.716H20.8a.737.737,0,0,1-.752-.716Zm0,7.633A.737.737,0,0,1,20.8,22.9H23.31a.737.737,0,0,1,.752.716V26a.737.737,0,0,1-.752.716H20.8A.737.737,0,0,1,20.052,26Zm-8.021-7.633a.737.737,0,0,1,.752-.716H15.29a.737.737,0,0,1,.752.716v2.385a.737.737,0,0,1-.752.716H12.783a.737.737,0,0,1-.752-.716Zm0,7.633a.737.737,0,0,1,.752-.716H15.29a.737.737,0,0,1,.752.716V26a.737.737,0,0,1-.752.716H12.783A.737.737,0,0,1,12.031,26ZM4.01,15.982a.737.737,0,0,1,.752-.716H7.269a.737.737,0,0,1,.752.716v2.385a.737.737,0,0,1-.752.716H4.762a.737.737,0,0,1-.752-.716Zm0,7.633a.737.737,0,0,1,.752-.716H7.269a.737.737,0,0,1,.752.716V26a.737.737,0,0,1-.752.716H4.762A.737.737,0,0,1,4.01,26Zm21.055-19.8H22.057V.954a.982.982,0,0,0-1-.954H19.049a.982.982,0,0,0-1,.954V3.817H10.026V.954a.982.982,0,0,0-1-.954H7.018a.982.982,0,0,0-1,.954V3.817H3.008A2.939,2.939,0,0,0,0,6.679V9.541H28.073V6.679A2.939,2.939,0,0,0,25.065,3.817Z"/></svg>