<svg xmlns="http://www.w3.org/2000/svg" width="28.153" height="32.174" viewBox="0 0 28.153 32.174"><defs><style>.a{fill:#ff808b;}</style></defs><path class="a" d="M28.153,4.6V7.469c0,2.532-6.305,4.6-14.076,4.6S0,10,0,7.469V4.6C0,2.065,6.305,0,14.076,0S28.153,2.065,28.153,4.6Zm0,6.464v6.464c0,2.532-6.305,4.6-14.076,4.6S0,20.055,0,17.524V11.06c3.024,2.083,8.559,3.052,14.076,3.052S25.128,13.143,28.153,11.06Zm0,10.055v6.464c0,2.532-6.305,4.6-14.076,4.6S0,30.11,0,27.578V21.115c3.024,2.083,8.559,3.052,14.076,3.052S25.128,23.2,28.153,21.115Z"/></svg>