<svg xmlns="http://www.w3.org/2000/svg" width="23.776" height="31.701" viewBox="0 0 23.776 31.701"><defs><style>.a{fill:#f7b500;}</style></defs><path class="a" d="M13.869,8.421V0H1.486A1.482,1.482,0,0,0,0,1.486V30.215A1.482,1.482,0,0,0,1.486,31.7h20.8a1.482,1.482,0,0,0,1.486-1.486V9.907H15.355A1.49,1.49,0,0,1,13.869,8.421Zm3.963,14.612a.745.745,0,0,1-.743.743H6.687a.745.745,0,0,1-.743-.743v-.5a.745.745,0,0,1,.743-.743h10.4a.745.745,0,0,1,.743.743Zm0-3.963a.745.745,0,0,1-.743.743H6.687a.745.745,0,0,1-.743-.743v-.5a.745.745,0,0,1,.743-.743h10.4a.745.745,0,0,1,.743.743Zm0-4.458v.5a.745.745,0,0,1-.743.743H6.687a.745.745,0,0,1-.743-.743v-.5a.745.745,0,0,1,.743-.743h10.4A.745.745,0,0,1,17.832,14.612Zm5.944-7.065v.378H15.851V0h.378a1.485,1.485,0,0,1,1.053.433L23.343,6.5A1.481,1.481,0,0,1,23.776,7.548Z"/></svg>