<svg xmlns="http://www.w3.org/2000/svg" width="37.947" height="31.402" viewBox="0 0 37.947 31.402"><defs><style>.a{fill:#45afff;}</style></defs><path class="a" d="M37.947,16.192V15.21A.965.965,0,0,0,37,14.229H20.4V11.776h4.269a1.931,1.931,0,0,0,1.9-1.963V1.963A1.931,1.931,0,0,0,24.665,0H13.281a1.931,1.931,0,0,0-1.9,1.963V9.813a1.931,1.931,0,0,0,1.9,1.963H17.55v2.453H.949A.965.965,0,0,0,0,15.21v.981a.965.965,0,0,0,.949.981H7.115v2.453H3.795a1.931,1.931,0,0,0-1.9,1.963v7.851a1.931,1.931,0,0,0,1.9,1.963h9.487a1.931,1.931,0,0,0,1.9-1.963V21.589a1.931,1.931,0,0,0-1.9-1.963H9.961V17.173H27.986v2.453h-3.32a1.931,1.931,0,0,0-1.9,1.963v7.851a1.931,1.931,0,0,0,1.9,1.963h9.487a1.931,1.931,0,0,0,1.9-1.963V21.589a1.931,1.931,0,0,0-1.9-1.963h-3.32V17.173H37A.965.965,0,0,0,37.947,16.192ZM15.179,7.851V3.925h7.589V7.851ZM11.384,27.477H5.692V23.552h5.692Zm20.871,0H26.563V23.552h5.692Z"/></svg>