<svg xmlns="http://www.w3.org/2000/svg" width="36.851" height="22.118" viewBox="0 0 36.851 22.118"><defs><style>.a{fill:#6236ff;}</style></defs><path class="a" d="M25.03,64H20.084a1.842,1.842,0,0,0-1.244.484l-5.66,5.182c-.006.006-.012.017-.017.023a2.29,2.29,0,0,0-.121,3.224,2.4,2.4,0,0,0,3.23.155c.006-.006.017-.006.023-.012l4.6-4.215A.921.921,0,1,1,22.139,70.2l-1.5,1.376,8.384,6.806a4.148,4.148,0,0,1,.455.443V67.685l-3.144-3.144A1.829,1.829,0,0,0,25.03,64Zm6.293,3.7V80.589a1.841,1.841,0,0,0,1.843,1.843h3.685V67.7Zm2.764,12.892a.921.921,0,1,1,.921-.921A.924.924,0,0,1,34.087,80.589ZM0,82.425H3.685a1.841,1.841,0,0,0,1.843-1.843V67.7H0Zm2.764-3.679a.921.921,0,1,1-.921.921A.924.924,0,0,1,2.764,78.746Zm25.1,1.071-8.6-6.979-1.727,1.583a4.145,4.145,0,0,1-5.6-6.109L16.646,64H11.821a1.839,1.839,0,0,0-1.3.541L7.37,67.685V80.577H8.424l5.211,4.716a3.684,3.684,0,0,0,5.182-.535l.012-.012,1.031.892a2.14,2.14,0,0,0,3.011-.311L24.679,83.1l.311.253a1.84,1.84,0,0,0,2.591-.271l.547-.674a1.846,1.846,0,0,0-.265-2.6Z" transform="translate(0 -64)"/></svg>