<svg xmlns="http://www.w3.org/2000/svg" width="22.445" height="32.647" viewBox="0 0 22.445 32.647"><defs><style>.a{fill:#6dd400;}</style></defs><path class="a" d="M11.223,5.1A6.128,6.128,0,0,0,5.1,11.223a1.02,1.02,0,0,0,2.04,0,4.086,4.086,0,0,1,4.081-4.081,1.02,1.02,0,0,0,0-2.04Zm-5.1,24.178a1.014,1.014,0,0,0,.171.564l1.563,2.349a1.021,1.021,0,0,0,.849.455h5.028a1.019,1.019,0,0,0,.849-.455l1.563-2.349a1.026,1.026,0,0,0,.171-.564l0-2.753H6.123ZM11.223,0A11.216,11.216,0,0,0,2.778,18.605,18.248,18.248,0,0,1,6.12,24.482v0H9.181v-.008a3.017,3.017,0,0,0-.137-.9,20.106,20.106,0,0,0-3.964-6.993,8.162,8.162,0,1,1,12.287,0,20.151,20.151,0,0,0-3.96,6.98,3.029,3.029,0,0,0-.142.912v.006h3.061v0a18.234,18.234,0,0,1,3.343-5.877A11.217,11.217,0,0,0,11.223,0Z"/></svg>